<svg xmlns="http://www.w3.org/2000/svg" version="1.1" xmlns:xlink="http://www.w3.org/1999/xlink" xmlns:svgjs="http://svgjs.dev/svgjs" width="1000" height="1125" viewBox="0 0 1000 1125"><g transform="matrix(1,0,0,1,0,0)"><svg viewBox="0 0 320 360" data-background-color="#282634" preserveAspectRatio="xMidYMid meet" height="1125" width="1000" xmlns="http://www.w3.org/2000/svg" xmlns:xlink="http://www.w3.org/1999/xlink"><g id="tight-bounds" transform="matrix(1,0,0,1,0,0)"><svg viewBox="0 0 320 360" height="360" width="320"><g><svg></svg></g><g><svg viewBox="0 0 320 360" height="360" width="320"><g><path xmlns="http://www.w3.org/2000/svg" d="M297.491 100.645c-12.426-21.51-112.674-79.355-137.491-79.355-24.817 0-125.028 57.845-137.491 79.355-11.591 20.02-11.591 138.726 0 158.746 12.463 21.474 112.674 79.319 137.491 79.319 24.817 0 125.064-57.845 137.491-79.355 11.591-20.02 11.591-138.69 0-158.71zM309.481 93.705c-14.461-24.998-119.469-86.295-149.481-86.295-30.012 0-135.02 61.297-149.481 86.295-14.025 24.199-14.025 148.391 0 172.59 14.461 24.998 119.469 86.295 149.481 86.295 30.012 0 135.02-61.297 149.481-86.259 14.025-24.235 14.025-148.427 0-172.626zM300.906 261.353c-12.753 22.055-115.472 81.317-140.906 81.318-25.434 0-128.153-59.298-140.906-81.354-11.881-20.529-11.881-142.178 0-162.707 12.753-22.019 115.472-81.281 140.906-81.281 25.434 0 128.153 59.298 140.906 81.318 11.881 20.529 11.881 142.178 0 162.706z" fill="#0dcaf0" fill-rule="nonzero" stroke="none" stroke-width="1" stroke-linecap="butt" stroke-linejoin="miter" stroke-miterlimit="10" stroke-dasharray="" stroke-dashoffset="0" font-family="none" font-weight="none" font-size="none" text-anchor="none" style="mix-blend-mode: normal" data-fill-palette-color="tertiary"></path></g><g transform="matrix(1,0,0,1,95.36826560578922,90)"><svg viewBox="0 0 129.26346878842156 180" height="180" width="129.26346878842156"><g><svg viewBox="0 0 276.864 385.5344473353935" height="180" width="129.26346878842156"><g transform="matrix(1,0,0,1,26.431999999999988,265.1370481346033)"><svg viewBox="0 0 224 120.39739920079023" height="120.39739920079023" width="224"><g id="textblocktransform"><svg viewBox="0 0 224 120.39739920079023" height="120.39739920079023" width="224" id="textblock"><g><svg viewBox="0 0 224 120.39739920079023" height="120.39739920079023" width="224"><g transform="matrix(1,0,0,1,0,0)"><svg width="224" viewBox="2.0999999046325684 -36.019344329833984 67.97000122070312 36.52934265136719" height="120.39739920079023" data-palette-color="#282634"><path d="M16.53 0.51L16.53 0.51Q12.18 0.51 8.81-0.32 5.44-1.15 2.1-3.44L2.1-3.44 2.1-12.67 8.72-12.67 9.45-7.93Q10.23-7.06 12.21-6.46 14.18-5.86 16.53-5.86L16.53-5.86Q18.16-5.86 19.26-6.26 20.36-6.67 20.92-7.45 21.48-8.23 21.48-9.33L21.48-9.33Q21.48-10.38 20.96-11.21 20.43-12.04 19.24-12.78 18.04-13.53 16.02-14.31L16.02-14.31Q11.45-15.77 8.52-17.29 5.59-18.8 4.16-20.87 2.73-22.95 2.73-26.03L2.73-26.03Q2.73-28.98 4.42-31.19 6.1-33.4 9.06-34.67 12.01-35.94 15.82-36.01L15.82-36.01Q20.17-36.11 23.51-35.14 26.86-34.18 29.42-32.23L29.42-32.23 29.42-23.66 23.07-23.66 22.07-28.42Q21.24-28.83 19.7-29.17 18.16-29.52 16.43-29.52L16.43-29.52Q14.94-29.52 13.78-29.13 12.62-28.74 11.95-27.95 11.28-27.17 11.28-26L11.28-26Q11.28-25.05 11.84-24.3 12.4-23.56 13.82-22.81 15.23-22.07 17.77-21.09L17.77-21.09Q23.83-19.31 26.97-16.64 30.1-13.96 30.1-9.38L30.1-9.38Q30.1-6.23 28.39-4.02 26.68-1.81 23.63-0.65 20.58 0.51 16.53 0.51ZM47.95 0L32 0 32-5 35.67-5.79 35.67-29.74 32-30.52 32-35.55 35.67-35.55 44.38-35.55 58.64-12.79 58.79-12.79 58.79-29.74 54.12-30.52 54.12-35.55 66.38-35.55 70.07-35.55 70.07-30.52 66.38-29.74 66.38 0 57.93 0 43.41-22.27 43.26-22.27 43.26-5.79 47.95-5 47.95 0Z" opacity="1" transform="matrix(1,0,0,1,0,0)" fill="#282634" class="wordmark-text-0" data-fill-palette-color="quaternary" id="text-0"></path></svg></g></svg></g></svg></g></svg></g><g><svg viewBox="0 0 276.864 236.7141117208775" height="236.7141117208775" width="276.864"><g><svg xmlns="http://www.w3.org/2000/svg" xmlns:xlink="http://www.w3.org/1999/xlink" version="1.1" x="0" y="0" viewBox="4.684113502502441 11.331262588500977 80.31588745117188 68.66874694824219" style="enable-background:new 0 0 90 90;" xml:space="preserve" height="236.7141117208775" width="276.864" class="icon-icon-0" data-fill-palette-color="quaternary" id="icon-0"><path d="M36 39.2c0-3.5 3.5-6.2 7-6.2h30.6c-1.1-1-2.4-1.8-3.8-2.4l-0.4-1.8c-0.8-3.2-2.9-5.8-5.9-7.1-3-1.4-6.3-1.3-9.2 0.1l-0.5 0.3-2.5-3.2c-5.1-6.4-13.1-9-20.9-6.8-7.9 2.2-13.4 8.5-14.5 16.6l-0.4 3-2.7 1.5c-6.4 3.4-9.4 10.6-7.6 17.6 1.8 7 7.6 12.1 14.8 12.1H36V39.2z" fill="#282634" data-fill-palette-color="quaternary"></path><path d="M81.5 37H44.6c-2 0-3.6 1.8-3.6 3.8v11.1 23.7c0 2 1.5 4.4 3.6 4.4h36.9c2 0 3.5-2.4 3.5-4.4V51.9 40.8C85 38.8 83.5 37 81.5 37zM81 75H45V56h36V75zM76.4 41.3c1.8 0 3.3 1.5 3.3 3.3 0 1.8-1.5 3.3-3.3 3.3-1.8 0-3.3-1.5-3.3-3.3C73 42.8 74.5 41.3 76.4 41.3zM67.2 41.3c1.8 0 3.3 1.5 3.3 3.3 0 1.8-1.5 3.3-3.3 3.3s-3.3-1.5-3.3-3.3C63.9 42.8 65.4 41.3 67.2 41.3zM58.1 41.3c1.8 0 3.3 1.5 3.3 3.3 0 1.8-1.5 3.3-3.3 3.3-1.8 0-3.3-1.5-3.3-3.3C54.8 42.8 56.3 41.3 58.1 41.3z" fill="#282634" data-fill-palette-color="quaternary"></path></svg></g></svg></g><g></g></svg></g></svg></g></svg></g><defs></defs></svg><rect width="320" height="360" fill="none" stroke="none" visibility="hidden"></rect></g></svg></g></svg>