<?xml version="1.0" standalone="no"?>
<svg xmlns:xlink="http://www.w3.org/1999/xlink" id="wave" style="transform:rotate(0deg); transition: 0.3s" viewBox="0 0 1440 190" version="1.1" xmlns="http://www.w3.org/2000/svg"><defs><linearGradient id="sw-gradient-0" x1="0" x2="0" y1="1" y2="0"><stop stop-color="rgba(255, 255, 255, 0.15)" offset="0%"/><stop stop-color="rgba(116.102, 102.853, 73.567, 1)" offset="100%"/></linearGradient></defs><path style="transform:translate(0, 0px); opacity:1" fill="url(#sw-gradient-0)" d="M0,0L10,6.3C20,13,40,25,60,25.3C80,25,100,13,120,22.2C140,32,160,63,180,63.3C200,63,220,32,240,38C260,44,280,89,300,95C320,101,340,70,360,60.2C380,51,400,63,420,66.5C440,70,460,63,480,69.7C500,76,520,95,540,98.2C560,101,580,89,600,69.7C620,51,640,25,660,25.3C680,25,700,51,720,66.5C740,82,760,89,780,88.7C800,89,820,82,840,82.3C860,82,880,89,900,101.3C920,114,940,133,960,133C980,133,1000,114,1020,101.3C1040,89,1060,82,1080,88.7C1100,95,1120,114,1140,123.5C1160,133,1180,133,1200,117.2C1220,101,1240,70,1260,72.8C1280,76,1300,114,1320,107.7C1340,101,1360,51,1380,31.7C1400,13,1420,25,1430,31.7L1440,38L1440,190L1430,190C1420,190,1400,190,1380,190C1360,190,1340,190,1320,190C1300,190,1280,190,1260,190C1240,190,1220,190,1200,190C1180,190,1160,190,1140,190C1120,190,1100,190,1080,190C1060,190,1040,190,1020,190C1000,190,980,190,960,190C940,190,920,190,900,190C880,190,860,190,840,190C820,190,800,190,780,190C760,190,740,190,720,190C700,190,680,190,660,190C640,190,620,190,600,190C580,190,560,190,540,190C520,190,500,190,480,190C460,190,440,190,420,190C400,190,380,190,360,190C340,190,320,190,300,190C280,190,260,190,240,190C220,190,200,190,180,190C160,190,140,190,120,190C100,190,80,190,60,190C40,190,20,190,10,190L0,190Z"/></svg>